<svg width="16" height="20" viewBox="0 0 16 20" fill="none" xmlns="http://www.w3.org/2000/svg">
<path d="M14.5366 4.89734C14.8302 3.4133 14.5366 2.37447 13.6556 1.48404C12.7745 0.445213 11.1594 0 9.1037 0H3.08351C2.64301 0 2.34934 0.296809 2.20251 0.742022L0 15.7309C0 16.0277 0.146834 16.3245 0.440502 16.3245H4.40502L4.99235 11.2787L7.63536 8.01383L14.5366 4.89734Z" fill="#003087"/>
<path d="M14.5367 4.89595L14.243 5.19276C13.5089 9.34808 11.0127 10.8321 7.48866 10.8321H5.87349C5.43299 10.8321 5.13932 11.1289 4.99249 11.5741L4.11148 17.3619L3.81782 18.846C3.81782 19.1428 3.96465 19.4396 4.25832 19.4396H7.34183C7.78233 19.4396 8.076 19.1428 8.076 18.846V18.6976L8.66333 15.1358V14.9874C8.66333 14.6906 9.10384 14.3938 9.3975 14.3938H9.83801C12.9215 14.3938 15.2709 13.2066 15.8582 9.64489C16.1519 8.16085 16.005 6.97361 15.2709 6.08319C15.124 5.34116 14.8304 5.04436 14.5367 4.89595Z" fill="#3086C8"/>
<path d="M13.6552 4.60056C13.5084 4.45216 13.3616 4.45216 13.2147 4.45216C13.0679 4.45216 12.9211 4.45216 12.7742 4.30375C12.3337 4.15535 11.7464 4.15535 11.1591 4.15535H6.75404C6.60721 4.15535 6.46038 4.15535 6.46038 4.30375C6.16671 4.45216 6.01988 4.60056 6.01988 4.89737L4.99204 11.4272V11.5756C4.99204 11.1304 5.43254 10.8335 5.87304 10.8335H7.78188C11.4527 10.8335 13.8021 9.3495 14.5362 5.19418V4.89737C14.3894 4.74897 14.0957 4.60056 13.8021 4.60056H13.6552Z" fill="#012169"/>
</svg>
