<svg width="40" height="16" viewBox="0 0 40 16" fill="none" xmlns="http://www.w3.org/2000/svg">
<path d="M18.9235 7.75702V12.4138H17.442V0.917324H21.3581C21.8273 0.909381 22.2935 0.99426 22.7298 1.16708C23.1661 1.33991 23.564 1.59726 23.9005 1.92436C24.2192 2.22181 24.4762 2.57916 24.6568 2.97598C24.8374 3.37281 24.938 3.80133 24.9528 4.23706C24.9677 4.67278 24.8965 5.10717 24.7434 5.51538C24.5903 5.92359 24.3583 6.29762 24.0605 6.6161L23.9005 6.78491C23.2165 7.43541 22.3026 7.78904 21.3581 7.76576L18.9235 7.75702ZM18.9235 2.32601V6.38326H21.3945C21.9431 6.40073 22.4729 6.1868 22.857 5.79534C23.1319 5.5089 23.3164 5.14799 23.3877 4.7575C23.459 4.36701 23.4139 3.96418 23.258 3.59911C23.1022 3.23404 22.8424 2.92286 22.5111 2.70426C22.1797 2.48567 21.7915 2.36931 21.3945 2.36967L18.9235 2.32601ZM28.3594 4.2877C29.3053 4.24404 30.2308 4.56128 30.9468 5.17977C31.5944 5.80553 31.9393 6.67868 31.8928 7.57948V12.4313H30.4826V11.3166H30.4113C30.1584 11.7347 29.8008 12.0796 29.3738 12.3172C28.9468 12.5548 28.4653 12.6769 27.9766 12.6714C27.179 12.6972 26.4012 12.4201 25.7996 11.8958C25.5145 11.6633 25.2861 11.369 25.1316 11.0352C24.977 10.7014 24.9004 10.3368 24.9075 9.96901C24.8907 9.59733 24.9629 9.22701 25.1181 8.88885C25.2732 8.55069 25.5069 8.25446 25.7996 8.02479C26.5176 7.50841 27.3867 7.24482 28.2706 7.27534C29.023 7.24623 29.7695 7.41067 30.4389 7.75702V7.45433C30.4439 7.20407 30.3918 6.95596 30.2866 6.7288C30.1815 6.50163 30.0261 6.30136 29.8321 6.14315C29.4426 5.78902 28.9323 5.5974 28.4059 5.60761C28.0237 5.60401 27.6468 5.69793 27.311 5.8805C26.9751 6.06308 26.6913 6.32827 26.4865 6.65103L25.184 5.83027C25.5377 5.32355 26.0151 4.91577 26.571 4.64576C27.1268 4.37575 27.7425 4.25248 28.3594 4.2877ZM26.4865 10.0039C26.483 10.1924 26.5259 10.3789 26.6114 10.5469C26.6969 10.7149 26.8224 10.8593 26.9769 10.9673C27.3014 11.2234 27.7045 11.3588 28.1193 11.35C28.7436 11.3486 29.3417 11.1027 29.787 10.6632C30.2308 10.247 30.4826 9.66632 30.4826 9.05802C29.9224 8.65974 29.2417 8.46745 28.5558 8.51376C28.0234 8.49279 27.4981 8.64271 27.0569 8.9416C26.8822 9.0585 26.7388 9.21649 26.6393 9.4017C26.5399 9.58692 26.4874 9.79371 26.4865 10.0039ZM40 4.54673L35.0667 15.8832H33.5416L35.4057 11.9132L32.1693 4.54673H33.7744L36.1203 10.2004L38.4036 4.54673H40Z" fill="#5F6368"/>
<path d="M12.9463 6.7524C12.9463 6.30418 12.9114 5.85596 12.8401 5.41356H6.59704V7.9559H10.1639C10.0913 8.35994 9.93782 8.74516 9.71277 9.08849C9.48772 9.43182 9.19568 9.72619 8.85414 9.95396V11.6042H10.9846C11.6324 10.9774 12.1417 10.2218 12.4796 9.38617C12.8175 8.5505 12.9765 7.65329 12.9463 6.7524Z" fill="#4285F4"/>
<path d="M6.6059 13.2074C8.21588 13.2516 9.78223 12.6807 10.9862 11.611L8.85282 9.95198C8.34021 10.2807 7.7594 10.4881 7.15456 10.5585C6.54973 10.629 5.93679 10.5606 5.36236 10.3586C4.78793 10.1565 4.26714 9.82614 3.83958 9.39256C3.41203 8.95898 3.08898 8.43362 2.89499 7.85642H0.709191V9.55907C1.25615 10.6549 2.09758 11.5767 3.13912 12.2211C4.18066 12.8656 5.38113 13.2071 6.6059 13.2074Z" fill="#34A853"/>
<path d="M2.89464 7.86798C2.61784 7.04912 2.61784 6.16197 2.89464 5.34311V3.64046H0.708839C0.242845 4.55939 0 5.57522 0 6.60555C0 7.63588 0.242845 8.6517 0.708839 9.57063L2.89464 7.86798Z" fill="#FBBC04"/>
<path d="M6.6059 2.61456C7.54746 2.59736 8.45765 2.95307 9.13805 3.60413L11.0299 1.72249C9.82362 0.590318 8.22364 -0.0272266 6.56952 0.000921683C5.352 0.00702812 4.15996 0.350188 3.12555 0.992358C2.09114 1.63453 1.25478 2.55062 0.709191 3.63906L2.89499 5.34316C3.15057 4.55745 3.64603 3.87162 4.3117 3.38217C4.97736 2.89271 5.77972 2.62425 6.6059 2.61456Z" fill="#EA4335"/>
</svg>
